<?xml version="1.0" standalone="no"?>
<!DOCTYPE svg PUBLIC "-//W3C//DTD SVG 20010904//EN"
 "http://www.w3.org/TR/2001/REC-SVG-20010904/DTD/svg10.dtd">
<svg version="1.0" xmlns="http://www.w3.org/2000/svg"
 width="64.000000pt" height="64.000000pt" viewBox="0 0 64.000000 64.000000"
 preserveAspectRatio="xMidYMid meet">
<metadata>
Created by potrace 1.10, written by Peter Selinger 2001-2011
</metadata>
<g transform="translate(0.000000,64.000000) scale(0.100000,-0.100000)"
fill="#000000" stroke="none">
<path d="M17 623 c-4 -3 -7 -16 -7 -27 1 -18 2 -19 13 -5 7 8 21 21 32 27 19
11 19 11 -6 12 -14 0 -29 -3 -32 -7z"/>
<path d="M575 621 c3 -6 12 -11 20 -11 7 0 18 -12 24 -27 10 -28 10 -28 8 7
-2 30 -6 35 -31 38 -18 2 -26 0 -21 -7z"/>
<path d="M87 552 c-30 -31 -34 -64 -13 -102 12 -21 12 -29 0 -51 -10 -20 -13
-63 -11 -164 2 -130 3 -138 26 -156 28 -23 62 -24 101 -4 27 14 33 14 61 -1
36 -18 90 -12 110 12 7 9 14 49 15 95 2 44 6 84 9 89 15 25 25 5 25 -52 0 -87
14 -132 46 -146 39 -19 73 -14 99 13 23 22 25 31 25 127 0 121 -19 175 -72
208 -26 17 -43 20 -83 15 -27 -3 -76 -5 -107 -5 -37 1 -66 -5 -82 -16 -23 -14
-26 -14 -32 -1 -3 9 2 27 11 41 22 33 12 79 -22 106 -36 28 -74 25 -106 -8z
m95 -19 c22 -20 23 -51 1 -75 -31 -35 -93 -10 -93 38 0 48 55 70 92 37z m309
-138 c41 -22 50 -52 56 -186 l6 -115 -52 0 -51 0 0 94 c0 108 -9 132 -49 132
-46 0 -56 -22 -57 -129 l-1 -96 -46 -1 -47 -1 0 153 0 154 45 0 c40 0 45 -3
45 -22 1 -20 2 -21 13 -7 31 40 87 50 138 24z m-301 -149 l0 -153 -46 1 -46 1
-2 153 -1 152 48 0 47 0 0 -154z"/>
<path d="M13 45 c2 -26 6 -30 32 -32 28 -2 28 -2 9 8 -12 6 -27 21 -33 33 -10
19 -10 19 -8 -9z"/>
<path d="M617 54 c-4 -12 -17 -26 -30 -32 -21 -10 -21 -11 6 -11 29 -1 41 15
35 46 -4 16 -5 16 -11 -3z"/>
</g>
</svg>
